<svg xmlns="http://www.w3.org/2000/svg" xmlns:xlink="http://www.w3.org/1999/xlink" width="200" zoomAndPan="magnify" viewBox="0 0 150 30.000001" height="40" preserveAspectRatio="xMidYMid meet" version="1.0"><defs><g/></defs><g fill="#5e17eb" fill-opacity="1"><g transform="translate(14.928173, 23.588711)"><g><path d="M 16.828125 -12.453125 C 16.828125 -11.253906 16.550781 -10.164062 16 -9.1875 C 15.445312 -8.21875 14.628906 -7.445312 13.546875 -6.875 C 12.472656 -6.300781 11.171875 -6.015625 9.640625 -6.015625 L 7.28125 -6.015625 L 7.28125 0 L 1.34375 0 L 1.34375 -18.953125 L 9.640625 -18.953125 C 11.953125 -18.953125 13.726562 -18.363281 14.96875 -17.1875 C 16.207031 -16.007812 16.828125 -14.429688 16.828125 -12.453125 Z M 8.96875 -10.703125 C 10.195312 -10.703125 10.8125 -11.285156 10.8125 -12.453125 C 10.8125 -13.609375 10.195312 -14.1875 8.96875 -14.1875 L 7.28125 -14.1875 L 7.28125 -10.703125 Z M 8.96875 -10.703125 "/></g></g></g><g fill="#5e17eb" fill-opacity="1"><g transform="translate(32.298089, 23.588711)"><g><path d="M 8.515625 0.1875 C 6.992188 0.1875 5.625 -0.125 4.40625 -0.75 C 3.195312 -1.375 2.25 -2.269531 1.5625 -3.4375 C 0.875 -4.601562 0.53125 -5.972656 0.53125 -7.546875 C 0.53125 -9.117188 0.875 -10.488281 1.5625 -11.65625 C 2.25 -12.820312 3.195312 -13.71875 4.40625 -14.34375 C 5.625 -14.96875 6.992188 -15.28125 8.515625 -15.28125 C 10.023438 -15.28125 11.382812 -14.96875 12.59375 -14.34375 C 13.8125 -13.71875 14.765625 -12.820312 15.453125 -11.65625 C 16.140625 -10.488281 16.484375 -9.117188 16.484375 -7.546875 C 16.484375 -5.972656 16.140625 -4.601562 15.453125 -3.4375 C 14.765625 -2.269531 13.8125 -1.375 12.59375 -0.75 C 11.382812 -0.125 10.023438 0.1875 8.515625 0.1875 Z M 8.515625 -4.953125 C 9.066406 -4.953125 9.53125 -5.171875 9.90625 -5.609375 C 10.28125 -6.046875 10.46875 -6.691406 10.46875 -7.546875 C 10.46875 -8.398438 10.28125 -9.046875 9.90625 -9.484375 C 9.53125 -9.921875 9.066406 -10.140625 8.515625 -10.140625 C 7.960938 -10.140625 7.5 -9.921875 7.125 -9.484375 C 6.75 -9.046875 6.5625 -8.398438 6.5625 -7.546875 C 6.5625 -6.691406 6.742188 -6.046875 7.109375 -5.609375 C 7.472656 -5.171875 7.941406 -4.953125 8.515625 -4.953125 Z M 8.515625 -4.953125 "/></g></g></g><g fill="#5e17eb" fill-opacity="1"><g transform="translate(49.320064, 23.588711)"><g><path d="M 7.28125 -12.3125 C 7.882812 -13.1875 8.625 -13.882812 9.5 -14.40625 C 10.375 -14.9375 11.285156 -15.203125 12.234375 -15.203125 L 12.234375 -8.859375 L 10.546875 -8.859375 C 9.421875 -8.859375 8.59375 -8.660156 8.0625 -8.265625 C 7.539062 -7.878906 7.28125 -7.1875 7.28125 -6.1875 L 7.28125 0 L 1.34375 0 L 1.34375 -15.09375 L 7.28125 -15.09375 Z M 7.28125 -12.3125 "/></g></g></g><g fill="#5e17eb" fill-opacity="1"><g transform="translate(61.818906, 23.588711)"><g><path d="M 10.734375 -5.0625 L 10.734375 0 L 8.484375 0 C 4.347656 0 2.28125 -2.0625 2.28125 -6.1875 L 2.28125 -10.140625 L 0.40625 -10.140625 L 0.40625 -15.09375 L 2.28125 -15.09375 L 2.28125 -18.734375 L 8.21875 -18.734375 L 8.21875 -15.09375 L 10.671875 -15.09375 L 10.671875 -10.140625 L 8.21875 -10.140625 L 8.21875 -6.078125 C 8.21875 -5.722656 8.300781 -5.460938 8.46875 -5.296875 C 8.632812 -5.140625 8.914062 -5.0625 9.3125 -5.0625 Z M 10.734375 -5.0625 "/></g></g></g><g fill="#5e17eb" fill-opacity="1"><g transform="translate(73.488059, 23.588711)"><g><path d="M 10.03125 -16.171875 C 9.71875 -16.203125 9.5 -16.21875 9.375 -16.21875 C 8.925781 -16.21875 8.582031 -16.132812 8.34375 -15.96875 C 8.113281 -15.800781 7.957031 -15.507812 7.875 -15.09375 L 10.03125 -15.09375 L 10.03125 -10.140625 L 7.8125 -10.140625 L 7.8125 0 L 1.875 0 L 1.875 -10.140625 L 0.265625 -10.140625 L 0.265625 -15.09375 L 1.875 -15.09375 C 1.90625 -17.0625 2.523438 -18.582031 3.734375 -19.65625 C 4.941406 -20.738281 6.632812 -21.28125 8.8125 -21.28125 C 9.0625 -21.28125 9.46875 -21.257812 10.03125 -21.21875 Z M 10.03125 -16.171875 "/></g></g></g><g fill="#5e17eb" fill-opacity="1"><g transform="translate(83.792249, 23.588711)"><g><path d="M 8.515625 0.1875 C 6.992188 0.1875 5.625 -0.125 4.40625 -0.75 C 3.195312 -1.375 2.25 -2.269531 1.5625 -3.4375 C 0.875 -4.601562 0.53125 -5.972656 0.53125 -7.546875 C 0.53125 -9.117188 0.875 -10.488281 1.5625 -11.65625 C 2.25 -12.820312 3.195312 -13.71875 4.40625 -14.34375 C 5.625 -14.96875 6.992188 -15.28125 8.515625 -15.28125 C 10.023438 -15.28125 11.382812 -14.96875 12.59375 -14.34375 C 13.8125 -13.71875 14.765625 -12.820312 15.453125 -11.65625 C 16.140625 -10.488281 16.484375 -9.117188 16.484375 -7.546875 C 16.484375 -5.972656 16.140625 -4.601562 15.453125 -3.4375 C 14.765625 -2.269531 13.8125 -1.375 12.59375 -0.75 C 11.382812 -0.125 10.023438 0.1875 8.515625 0.1875 Z M 8.515625 -4.953125 C 9.066406 -4.953125 9.53125 -5.171875 9.90625 -5.609375 C 10.28125 -6.046875 10.46875 -6.691406 10.46875 -7.546875 C 10.46875 -8.398438 10.28125 -9.046875 9.90625 -9.484375 C 9.53125 -9.921875 9.066406 -10.140625 8.515625 -10.140625 C 7.960938 -10.140625 7.5 -9.921875 7.125 -9.484375 C 6.75 -9.046875 6.5625 -8.398438 6.5625 -7.546875 C 6.5625 -6.691406 6.742188 -6.046875 7.109375 -5.609375 C 7.472656 -5.171875 7.941406 -4.953125 8.515625 -4.953125 Z M 8.515625 -4.953125 "/></g></g></g><g fill="#5e17eb" fill-opacity="1"><g transform="translate(100.814224, 23.588711)"><g><path d="M 7.28125 -19.8125 L 7.28125 0 L 1.34375 0 L 1.34375 -19.8125 Z M 7.28125 -19.8125 "/></g></g></g><g fill="#5e17eb" fill-opacity="1"><g transform="translate(109.432267, 23.588711)"><g><path d="M 4.34375 -16.296875 C 3.300781 -16.296875 2.46875 -16.570312 1.84375 -17.125 C 1.21875 -17.675781 0.90625 -18.375 0.90625 -19.21875 C 0.90625 -20.070312 1.21875 -20.78125 1.84375 -21.34375 C 2.46875 -21.90625 3.300781 -22.1875 4.34375 -22.1875 C 5.351562 -22.1875 6.171875 -21.90625 6.796875 -21.34375 C 7.421875 -20.78125 7.734375 -20.070312 7.734375 -19.21875 C 7.734375 -18.375 7.421875 -17.675781 6.796875 -17.125 C 6.171875 -16.570312 5.351562 -16.296875 4.34375 -16.296875 Z M 7.28125 -15.09375 L 7.28125 0 L 1.34375 0 L 1.34375 -15.09375 Z M 7.28125 -15.09375 "/></g></g></g><g fill="#5e17eb" fill-opacity="1"><g transform="translate(118.050311, 23.588711)"><g><path d="M 8.515625 0.1875 C 6.992188 0.1875 5.625 -0.125 4.40625 -0.75 C 3.195312 -1.375 2.25 -2.269531 1.5625 -3.4375 C 0.875 -4.601562 0.53125 -5.972656 0.53125 -7.546875 C 0.53125 -9.117188 0.875 -10.488281 1.5625 -11.65625 C 2.25 -12.820312 3.195312 -13.71875 4.40625 -14.34375 C 5.625 -14.96875 6.992188 -15.28125 8.515625 -15.28125 C 10.023438 -15.28125 11.382812 -14.96875 12.59375 -14.34375 C 13.8125 -13.71875 14.765625 -12.820312 15.453125 -11.65625 C 16.140625 -10.488281 16.484375 -9.117188 16.484375 -7.546875 C 16.484375 -5.972656 16.140625 -4.601562 15.453125 -3.4375 C 14.765625 -2.269531 13.8125 -1.375 12.59375 -0.75 C 11.382812 -0.125 10.023438 0.1875 8.515625 0.1875 Z M 8.515625 -4.953125 C 9.066406 -4.953125 9.53125 -5.171875 9.90625 -5.609375 C 10.28125 -6.046875 10.46875 -6.691406 10.46875 -7.546875 C 10.46875 -8.398438 10.28125 -9.046875 9.90625 -9.484375 C 9.53125 -9.921875 9.066406 -10.140625 8.515625 -10.140625 C 7.960938 -10.140625 7.5 -9.921875 7.125 -9.484375 C 6.75 -9.046875 6.5625 -8.398438 6.5625 -7.546875 C 6.5625 -6.691406 6.742188 -6.046875 7.109375 -5.609375 C 7.472656 -5.171875 7.941406 -4.953125 8.515625 -4.953125 Z M 8.515625 -4.953125 "/></g></g></g></svg>